<svg id="Layer_1" data-name="Layer 1" xmlns="http://www.w3.org/2000/svg" viewBox="0 0 1039.81 308.69"><defs><style>.cls-1{fill:#69c7a5;}.cls-1,.cls-2,.cls-3,.cls-4,.cls-5,.cls-6,.cls-7,.cls-8,.cls-9{fill-rule:evenodd;}.cls-2{fill:#3ba794;}.cls-3{fill:#869932;}.cls-4{fill:#5f1c40;}.cls-5{fill:#d71916;}.cls-6{fill:#ecb638;}.cls-7{fill:#91d6e5;}.cls-8{fill:#e82464;}.cls-9{fill:#fefefe;}</style></defs><title>akaira-crop</title><g id="Layer_1-2" data-name="Layer_1"><g id="_867130208800" data-name=" 867130208800"><path class="cls-1" d="M867.94,109.83a11.45,11.45,0,0,0,8.28-3.24,10.23,10.23,0,0,0,3.35-7.71,10.37,10.37,0,0,0-3.35-7.74A11.44,11.44,0,0,0,867.94,88a11.59,11.59,0,0,0-8.22,3.17,10.39,10.39,0,0,0-3.37,7.74,10.25,10.25,0,0,0,3.37,7.71A11.61,11.61,0,0,0,867.94,109.83Z" transform="translate(-66.78 -28.9)"/><path class="cls-2" d="M152.08,183.24l31.5-29.65,15.76,14.83a20.15,20.15,0,0,1,0,29.65l-15.76,14.82Z" transform="translate(-66.78 -28.9)"/><path class="cls-3" d="M230.86,109.14l-31.52,29.63,15.76,14.82a23.33,23.33,0,0,0,31.52,0l15.76-14.82Z" transform="translate(-66.78 -28.9)"/><path class="cls-4" d="M230.86,257.34l31.52-29.62-15.76-14.83a23.35,23.35,0,0,0-31.52,0l-15.76,14.83Z" transform="translate(-66.78 -28.9)"/><path class="cls-5" d="M309.63,183.24l-31.52,29.65-15.73-14.82a20.14,20.14,0,0,1,0-29.65l15.73-14.83Z" transform="translate(-66.78 -28.9)"/><path class="cls-1" d="M262.38,287a23.31,23.31,0,0,0,31.49,0,20.14,20.14,0,0,0,0-29.65l-31.49-29.62-31.52,29.62ZM120.56,153.59l31.52,29.65,31.5-29.65L152.08,124a23.35,23.35,0,0,0-31.52,0A20.16,20.16,0,0,0,120.56,153.59Z" transform="translate(-66.78 -28.9)"/><path class="cls-6" d="M278.11,212.89l31.52,29.62a23.33,23.33,0,0,0,31.52,0,20.15,20.15,0,0,0,0-29.62l-31.52-29.65ZM167.84,109.14l31.5,29.63,31.52-29.63L199.34,79.49a23.33,23.33,0,0,0-31.5,0A20.15,20.15,0,0,0,167.84,109.14Z" transform="translate(-66.78 -28.9)"/><path class="cls-7" d="M120.56,242.51a23.33,23.33,0,0,0,31.52,0l31.5-29.62-31.5-29.65-31.52,29.65A20.16,20.16,0,0,0,120.56,242.51Zm110.3-133.37,31.52,29.63,31.49-29.63a20.14,20.14,0,0,0,0-29.65,23.31,23.31,0,0,0-31.49,0Z" transform="translate(-66.78 -28.9)"/><path class="cls-1" d="M215.1,64.67a23.29,23.29,0,0,0,31.52,0,20.07,20.07,0,0,0,0-29.62,23.29,23.29,0,0,0-31.52,0A20.05,20.05,0,0,0,215.1,64.67Z" transform="translate(-66.78 -28.9)"/><path class="cls-7" d="M356.91,198.07a23.26,23.26,0,0,0,31.5,0,20.1,20.1,0,0,0,0-29.65,23.26,23.26,0,0,0-31.5,0A20.1,20.1,0,0,0,356.91,198.07Z" transform="translate(-66.78 -28.9)"/><path class="cls-8" d="M73.31,198.07a23.25,23.25,0,0,0,31.49,0,20.1,20.1,0,0,0,0-29.65,23.25,23.25,0,0,0-31.49,0A20.1,20.1,0,0,0,73.31,198.07Z" transform="translate(-66.78 -28.9)"/><path class="cls-6" d="M215.1,331.47a23.35,23.35,0,0,0,31.52,0,20.1,20.1,0,0,0,0-29.65,23.27,23.27,0,0,0-31.52,0A20.09,20.09,0,0,0,215.1,331.47Z" transform="translate(-66.78 -28.9)"/><path class="cls-8" d="M167.84,287a23.33,23.33,0,0,0,31.5,0l31.52-29.65-31.52-29.62-31.5,29.62A20.15,20.15,0,0,0,167.84,287ZM309.63,183.24l31.52-29.65a20.15,20.15,0,0,0,0-29.62,23.35,23.35,0,0,0-31.52,0l-31.52,29.62Z" transform="translate(-66.78 -28.9)"/><path class="cls-9" d="M573.82,247.19V124.85H554.26v16.72q-19-18-45.52-17.94-27.09,0-46.26,18.28T443.4,186.08q0,25.72,19.08,44.1t46.26,18.26q26.49,0,45.52-17.83v16.58ZM508.74,142A44.35,44.35,0,0,1,540.85,155q13.44,12.88,13.41,31v.12c0,12.13-4.45,22.45-13.41,31a44.37,44.37,0,0,1-32.11,12.95,45.05,45.05,0,0,1-32.37-12.95c-9-8.59-13.41-18.91-13.41-31s4.45-22.48,13.41-31.13A45,45,0,0,1,508.74,142Z" transform="translate(-66.78 -28.9)"/><polygon class="cls-9" points="552.59 148.61 552.59 53.57 533.4 53.57 533.4 218.18 552.59 218.18 552.59 165.54 602.57 218.29 628.22 218.29 569.6 157.06 623.32 95.95 598.85 95.95 552.59 148.61"/><path class="cls-9" d="M733.36,155A45,45,0,0,1,765.73,142,44.36,44.36,0,0,1,797.84,155q13.44,12.88,13.41,31v.12c0,12.13-4.45,22.45-13.41,31a44.39,44.39,0,0,1-32.11,12.95,45.05,45.05,0,0,1-32.37-12.95c-9-8.59-13.44-18.91-13.44-31S724.4,163.6,733.36,155Zm32.37,93.49q26.49,0,45.52-17.83v16.58h19.56V124.85H811.25v16.72q-19-18-45.52-17.94-27.09,0-46.29,18.28-19,18.38-19.05,44.17t19.05,44.1Q738.66,248.42,765.73,248.44Z" transform="translate(-66.78 -28.9)"/><polygon class="cls-9" points="791.61 218.29 810.74 218.29 810.74 95.95 791.61 95.95 791.61 218.29"/><path class="cls-9" d="M905.11,247.19H924.3v-59q0-17.82,11.87-32.71c7.88-8.42,17.47-12.61,28.63-12.61H966V124.85H964.8q-23.38,0-40.5,18.62V124.85H905.11Z" transform="translate(-66.78 -28.9)"/><path class="cls-9" d="M995.73,186.08q0-18.12,13.41-31.13A45.13,45.13,0,0,1,1041.51,142,44.39,44.39,0,0,1,1073.63,155q13.42,12.88,13.43,31v.12c0,12.13-4.48,22.45-13.43,31a44.41,44.41,0,0,1-32.12,12.95,45.15,45.15,0,0,1-32.37-12.95C1000.18,208.53,995.73,198.21,995.73,186.08Zm-19.56,0q0,25.72,19.08,44.1t46.26,18.26q26.54,0,45.55-17.83v16.58h19.53V124.85h-19.53v16.72q-19.05-18-45.55-17.94-27,0-46.26,18.28Q976.2,160.29,976.17,186.08Z" transform="translate(-66.78 -28.9)"/></g></g></svg>