<?xml version="1.0" encoding="UTF-8"?>
<!DOCTYPE svg PUBLIC "-//W3C//DTD SVG 1.1//EN" "http://www.w3.org/Graphics/SVG/1.1/DTD/svg11.dtd">
<!-- Creator: CorelDRAW X7 -->
<svg xmlns="http://www.w3.org/2000/svg" xml:space="preserve" width="420mm" height="297mm" version="1.1" style="shape-rendering:geometricPrecision; text-rendering:geometricPrecision; image-rendering:optimizeQuality; fill-rule:evenodd; clip-rule:evenodd"
viewBox="0 0 42000 29700"
 xmlns:xlink="http://www.w3.org/1999/xlink">
 <defs>
  <style type="text/css">
   <![CDATA[
    .fil8 {fill:#FEFEFE}
    .fil1 {fill:#3BA794}
    .fil3 {fill:#5F1C40}
    .fil0 {fill:#69C7A5}
    .fil2 {fill:#869932}
    .fil6 {fill:#91D6E5}
    .fil4 {fill:#D71916}
    .fil7 {fill:#E82464}
    .fil5 {fill:#ECB638}
   ]]>
  </style>
 </defs>
 <g id="Layer_x0020_1">
  <metadata id="CorelCorpID_0Corel-Layer"/>
  <g id="_867130208800">
   <path class="fil0" d="M30922 12260c116,0 213,-38 292,-114 79,-75 118,-166 118,-272 0,-106 -39,-197 -118,-273 -79,-76 -176,-112 -292,-112 -112,0 -209,36 -290,112 -79,76 -119,167 -119,273 0,106 40,197 119,272 81,76 178,114 290,114z"/>
   <path class="fil1" d="M5668 14850l1111 -1046 556 523c306,288 306,758 0,1046l-556 523 -1111 -1046z"/>
   <path class="fil2" d="M8447 12236l-1112 1045 556 523c306,288 806,288 1112,0l556 -523 -1112 -1045z"/>
   <path class="fil3" d="M8447 17464l1112 -1045 -556 -523c-306,-288 -806,-288 -1112,0l-556 523 1112 1045z"/>
   <path class="fil4" d="M11226 14850l-1112 1046 -555 -523c-306,-288 -306,-758 0,-1046l555 -523 1112 1046z"/>
   <path class="fil0" d="M9559 18510c305,288 806,288 1111,0 306,-288 306,-758 0,-1046l-1111 -1045 -1112 1045 1112 1046zm-5003 -4706l1112 1046 1111 -1046 -1111 -1045c-306,-288 -806,-288 -1112,0 -305,287 -305,758 0,1045z"/>
   <path class="fil5" d="M10114 15896l1112 1045c306,288 806,288 1112,0 305,-287 305,-758 0,-1045l-1112 -1046 -1112 1046zm-3890 -3660l1111 1045 1112 -1045 -1112 -1046c-305,-288 -806,-288 -1111,0 -306,288 -306,758 0,1046z"/>
   <path class="fil6" d="M4556 16941c306,288 806,288 1112,0l1111 -1045 -1111 -1046 -1112 1046c-305,287 -305,758 0,1045zm3891 -4705l1112 1045 1111 -1045c306,-288 306,-758 0,-1046 -305,-288 -806,-288 -1111,0l-1112 1046z"/>
   <path class="fil0" d="M7891 10667c307,289 805,289 1112,0 307,-289 307,-757 0,-1045 -307,-289 -805,-289 -1112,0 -307,288 -307,756 0,1045z"/>
   <path class="fil6" d="M12894 15373c307,289 804,289 1111,0 307,-289 307,-757 0,-1046 -307,-289 -804,-289 -1111,0 -307,289 -307,757 0,1046z"/>
   <path class="fil7" d="M2889 15373c307,289 804,289 1111,0 307,-289 307,-757 0,-1046 -307,-289 -804,-289 -1111,0 -307,289 -307,757 0,1046z"/>
   <path class="fil5" d="M7891 20079c307,288 805,288 1112,0 307,-289 307,-757 0,-1046 -307,-289 -805,-289 -1112,0 -307,289 -307,757 0,1046z"/>
   <path class="fil7" d="M6224 18510c305,288 806,288 1111,0l1112 -1046 -1112 -1045 -1111 1045c-306,288 -306,758 0,1046zm5002 -3660l1112 -1046c305,-287 305,-758 0,-1045 -306,-288 -806,-288 -1112,0l-1112 1045 1112 1046z"/>
   <path class="fil8" d="M20546 17106l0 -4316 -690 0 0 590c-447,-423 -983,-633 -1606,-633 -637,0 -1181,214 -1632,645 -448,432 -673,952 -673,1558 0,605 225,1123 673,1556 451,429 995,644 1632,644 623,0 1159,-209 1606,-629l0 585 690 0zm-2296 -3710c443,0 821,152 1133,456 316,303 473,668 473,1094l0 4c0,428 -157,792 -473,1095 -312,304 -690,457 -1133,457 -445,0 -826,-153 -1142,-457 -316,-303 -473,-667 -473,-1095 0,-426 157,-793 473,-1098 316,-304 697,-456 1142,-456z"/>
   <polygon class="fil8" points="22153,14648 22153,11295 21476,11295 21476,17102 22153,17102 22153,15245 23916,17106 24821,17106 22753,14946 24648,12790 23785,12790 "/>
   <path class="fil8" d="M26174 13852c316,-304 697,-456 1142,-456 443,0 821,152 1133,456 316,303 473,668 473,1094l0 4c0,428 -157,792 -473,1095 -312,304 -690,457 -1133,457 -445,0 -826,-153 -1142,-457 -316,-303 -474,-667 -474,-1095 0,-426 158,-793 474,-1098zm1142 3298c623,0 1159,-209 1606,-629l0 585 690 0 0 -4316 -690 0 0 590c-447,-423 -983,-633 -1606,-633 -637,0 -1181,214 -1633,645 -447,432 -672,952 -672,1558 0,605 225,1123 672,1556 452,429 996,644 1633,644z"/>
   <polygon class="fil8" points="30585,17106 31260,17106 31260,12790 30585,12790 "/>
   <path class="fil8" d="M32233 17106l677 0 0 -2080c0,-419 140,-803 419,-1154 278,-297 616,-445 1010,-445l43 0 0 -637 -43 0c-550,0 -1026,219 -1429,657l0 -657 -677 0 0 4316z"/>
   <path class="fil8" d="M35430 14950c0,-426 157,-793 473,-1098 317,-304 698,-456 1142,-456 443,0 821,152 1133,456 316,303 474,668 474,1094l0 4c0,428 -158,792 -474,1095 -312,304 -690,457 -1133,457 -444,0 -825,-153 -1142,-457 -316,-303 -473,-667 -473,-1095zm-690 0c0,605 225,1123 673,1556 451,429 996,644 1632,644 624,0 1159,-209 1607,-629l0 585 689 0 0 -4316 -689 0 0 590c-448,-423 -983,-633 -1607,-633 -636,0 -1181,214 -1632,645 -448,432 -673,952 -673,1558z"/>
  </g>
 </g>
</svg>
